<?xml version="1.0" standalone="no"?>
<!DOCTYPE svg PUBLIC "-//W3C//DTD SVG 20010904//EN"
 "http://www.w3.org/TR/2001/REC-SVG-20010904/DTD/svg10.dtd">
<svg version="1.0" xmlns="http://www.w3.org/2000/svg"
 width="406.000000pt" height="409.000000pt" viewBox="0 0 406.000000 409.000000"
 preserveAspectRatio="xMidYMid meet">
<metadata>
Created by potrace 1.14, written by Peter Selinger 2001-2017
</metadata>
<g transform="translate(0.000000,409.000000) scale(0.100000,-0.100000)"
fill="#ffffff" stroke="none">
<path d="M1739 3982 c-30 -27 -31 -30 -55 -216 -13 -104 -25 -190 -27 -191 -1
-1 -51 -19 -112 -40 -60 -21 -143 -56 -184 -77 l-73 -38 -32 22 c-17 12 -71
54 -121 93 -158 124 -177 133 -229 110 -17 -8 -116 -97 -219 -198 -204 -199
-217 -218 -193 -289 7 -19 60 -93 118 -166 l106 -132 -48 -97 c-26 -54 -60
-136 -75 -183 -16 -47 -32 -88 -37 -91 -6 -4 -65 -12 -131 -18 -168 -16 -239
-30 -261 -49 -43 -40 -46 -59 -46 -325 0 -140 3 -268 6 -286 4 -17 17 -42 31
-55 26 -27 64 -35 282 -61 68 -8 125 -16 126 -17 1 -2 16 -46 34 -99 17 -52
49 -131 71 -174 22 -44 40 -86 40 -93 0 -7 -33 -54 -73 -105 -150 -188 -147
-184 -147 -240 l0 -51 193 -189 c105 -103 206 -194 223 -202 45 -20 87 -5 171
62 148 120 196 156 207 157 6 0 54 -20 106 -45 52 -26 133 -59 180 -75 47 -15
86 -29 88 -29 1 -1 13 -87 26 -190 24 -183 25 -189 55 -219 l31 -31 290 0 289
0 30 29 c35 33 36 36 56 221 23 206 12 186 113 219 48 16 132 50 186 77 55 26
104 45 110 42 5 -4 17 -13 26 -20 113 -94 252 -195 279 -203 23 -6 42 -5 61 3
16 7 116 98 224 203 l196 190 0 51 c0 50 -3 55 -110 192 -60 78 -110 147 -110
153 0 7 18 48 39 93 22 44 54 123 72 175 18 52 33 96 35 98 1 2 87 14 190 27
186 23 190 24 217 55 l27 30 0 293 c0 323 0 326 -64 352 -18 8 -99 21 -181 30
-83 9 -159 18 -171 20 -16 3 -27 26 -53 102 -18 54 -52 137 -76 185 l-44 88
62 77 c159 201 167 213 167 266 l0 49 -196 192 c-107 105 -208 196 -224 203
-45 19 -86 0 -205 -95 -60 -48 -124 -97 -142 -110 l-32 -23 -88 45 c-49 24
-132 59 -185 77 -60 20 -100 39 -102 48 -3 9 -12 86 -21 171 -18 172 -26 202
-63 230 -23 19 -41 20 -313 20 l-289 0 -31 -28z m509 -948 c148 -31 298 -98
400 -178 167 -133 285 -306 348 -511 26 -84 28 -102 28 -260 0 -156 -3 -177
-28 -260 -103 -339 -346 -577 -692 -677 -68 -20 -102 -23 -244 -23 -143 0
-176 3 -245 23 -356 103 -612 363 -701 712 -27 105 -27 344 0 448 89 350 353
619 696 711 103 27 109 28 243 30 74 0 146 -5 195 -15z"/>
</g>
</svg>
