<svg xmlns="http://www.w3.org/2000/svg" xmlns:se="http://svg-edit.googlecode.com" xmlns:xlink="http://www.w3.org/1999/xlink" xmlns:dc="http://purl.org/dc/elements/1.1/" xmlns:cc="http://creativecommons.org/ns#" xmlns:rdf="http://www.w3.org/1999/02/22-rdf-syntax-ns#" xmlns:inkscape="http://www.inkscape.org/namespaces/inkscape" width="306.5999999999999" height="302.4">                                    <title>my vector image</title>                                    <!-- Created with Vector Paint - http://www.vectorpaint.yaks.com/ https://chrome.google.com/webstore/detail/hnbpdiengicdefcjecjbnjnoifekhgdo -->                                    <rect id="backgroundrect" width="100%" height="100%" x="0" y="0" fill="#FFFFFF" stroke="none"/>                                <g class="currentLayer"><title>Layer 1</title><path fill="#ffffff" stroke="#222222" stroke-width="2" stroke-linejoin="round" stroke-dashoffset="" fill-rule="nonzero" marker-start="" marker-mid="" marker-end="" id="svg_1" d="M263.65446319980117,158.59604205990186 L302.06167990178005,138.28561219171627 C301.3067970236665,130.7571856509253 299.84803686738746,123.45318374953513 298.0220363921211,116.28179640784435 L255.3609526609186,110.37534794290957 C251.6681472303477,101.47997132560337 246.79201188276124,93.22726526664488 241.0589824574385,85.6580342459639 L257.3195676959357,45.65944282798981 C251.97418082948872,40.44667052129917 246.2003469242988,35.6929486134253 240.1204794197975,31.31666814458275 L203.89630239216268,54.05496456659175 C195.39876945384123,49.586874017985195 186.248364837211,46.200102186623695 176.63890982171023,44.017062512197086 L163.55087289505542,3.4574094956526125 C159.8376652245962,3.181979256352264 156.12445755405753,2.8861467771182276 152.33984204377361,2.8861467771182276 S144.85221998284993,3.1717781363854556 141.12881119232173,3.4574094956526125 L128.16318770534843,43.6600233130968 C118.29870469056306,45.77165514771012 108.94427767442573,49.19923145896165 100.23252121660761,53.718327607447875 L64.56940578756945,31.31666814458275 C58.49973940313663,35.6929486134253 52.7259054978673,40.44667052129917 47.380518631499854,45.65944282798981 L63.19225459110453,84.5461121687957 C57.030778126868086,92.45198014862069 51.86901142004018,101.1637366063932 47.99258582986192,110.55896810244312 L6.678049935314675,116.27159528787755 C4.8622505799469025,123.44298262956832 3.3932893036781877,130.73678341096888 2.6486075455658806,138.27541107172954 L39.729678651015945,157.89216478168797 C40.14792456994007,168.22589931533923 41.86171272558295,178.2331980098137 44.891445357844134,187.659032865767 L16.91997438915675,218.58882862686818 C20.174131660813345,225.33176892967077 23.79552925162767,231.88088795297062 27.988189560936803,238.0219621772731 L69.17011089589232,229.1775911598436 C75.92325231860235,236.52239754110428 83.61489677903324,242.95930424470305 92.10222859736479,248.28428887111426 L90.54145724137243,290.4251154836048 C97.30479978415144,293.4752503558224 104.33337144619276,296.0255303493162 111.57616662774211,298.0657543441189 L137.62982704118883,264.5754774695546 C142.25093438941116,265.16714242804517 146.93324845748032,265.5649861070356 151.70737260535287,265.5649861070356 C156.8793404321711,265.5649861070356 161.9390959392852,265.0957345882346 166.91724248650576,264.41225954997725 L193.10351745971485,298.08615658407257 C200.3565137612532,296.0459325892697 207.37488430331672,293.4956525957761 214.1382268460049,290.44551772355834 L212.54685213013425,247.5498082329995 C220.63634026950984,242.31663368633565 227.9709455307837,236.05314602230345 234.43845559424068,228.9735687603765 L276.69149452651965,238.04236441722657 C280.88415483573834,231.9012901929043 284.5055524265524,225.36237228959124 287.7597096983111,218.60923086680185 L258.8803390519286,186.66952422828595 C261.65504368482596,177.74354425105946 263.2056139209198,168.31770939508633 263.65446319980117,158.59604205990186 zM199.82605552254654,207.38799889542577 L181.6170563690103,219.24170030520253 L170.41622663762774,202.03241090909438 C164.59138713250093,204.27665730338435 158.31769834847069,205.63340625990986 151.70737260535287,205.63340625990986 C122.82800195906111,205.63340625990986 99.42663273872853,182.22183591963287 99.42663273872853,153.35266639326815 C99.42663273872853,124.47329574693671 122.82800195906111,101.07192652664912 151.70737260535287,101.07192652664912 C180.57654213165523,101.07192652664912 203.98811247196682,124.47329574693671 203.98811247196682,153.35266639326815 C203.98811247196682,167.77705003647236 198.14287072686125,180.82428248319735 188.69663363099966,190.2909218190605 L199.82605552254654,207.38799889542577 z" style="color: rgb(0, 0, 0);" class="" fill-opacity="1"/></g></svg>