<?xml version="1.0" standalone="no"?>
<!DOCTYPE svg PUBLIC "-//W3C//DTD SVG 20010904//EN"
 "http://www.w3.org/TR/2001/REC-SVG-20010904/DTD/svg10.dtd">
<svg version="1.0" xmlns="http://www.w3.org/2000/svg"
 width="512.000000pt" height="512.000000pt" viewBox="0 0 512.000000 512.000000"
 preserveAspectRatio="xMidYMid meet">
<metadata>
Created by potrace 1.14, written by Peter Selinger 2001-2017
</metadata>
<g transform="translate(0.000000,512.000000) scale(0.100000,-0.100000)"
fill="#ffffff" stroke="none">
<path d="M2628 4993 c-93 -93 -131 -137 -138 -163 -12 -43 -100 -640 -100
-678 0 -37 98 -330 122 -365 13 -17 71 -53 166 -101 472 -239 781 -555 1031
-1055 30 -60 61 -107 78 -119 36 -25 329 -122 368 -122 17 0 177 22 357 49
256 39 334 54 355 69 16 11 79 72 141 135 l112 115 0 69 c0 40 -18 159 -44
290 l-43 221 -63 105 c-291 488 -1029 1227 -1523 1526 l-106 63 -223 44 c-133
26 -251 44 -292 44 l-69 0 -129 -127z m572 -268 c541 -297 992 -716 1355
-1260 62 -93 141 -219 175 -280 56 -101 61 -114 57 -158 -7 -82 -68 -137 -153
-137 -67 0 -99 30 -189 180 -375 627 -805 1058 -1380 1382 -148 84 -175 113
-175 188 0 57 30 107 80 133 56 29 110 18 230 -48z"/>
<path d="M2090 4789 c-420 -54 -864 -245 -1199 -515 -471 -380 -789 -937 -876
-1535 -21 -146 -21 -533 1 -678 77 -526 309 -988 684 -1361 375 -375 841 -609
1361 -685 146 -21 533 -21 678 1 685 100 1287 484 1675 1069 121 182 232 420
296 637 34 113 76 332 82 418 3 50 1 55 -17 54 -11 -1 -181 -26 -379 -55
l-358 -52 -110 33 c-63 19 -112 29 -117 24 -4 -5 -16 -45 -25 -89 -55 -243
-189 -481 -380 -670 -257 -256 -582 -396 -951 -412 -628 -26 -1195 357 -1403
948 -61 171 -77 274 -76 479 0 206 17 311 75 477 147 417 484 744 905 882 49
16 108 32 131 36 66 11 69 20 34 129 -17 53 -31 109 -31 124 1 15 25 187 54
382 30 195 52 358 49 363 -5 8 -13 8 -103 -4z"/>
<path d="M2255 3519 c-487 -61 -896 -461 -970 -949 -96 -627 346 -1208 980
-1291 336 -44 688 81 935 331 438 443 436 1143 -5 1585 -250 250 -592 367
-940 324z m-248 -357 c64 -45 81 -149 36 -211 -45 -61 -151 -79 -211 -34 -62
45 -80 151 -35 211 46 63 147 79 210 34z m960 0 c43 -31 66 -85 60 -140 -16
-141 -201 -181 -278 -60 -26 42 -22 126 8 166 46 63 146 79 210 34z m-452
-307 c171 -45 295 -170 340 -342 79 -302 -166 -599 -479 -581 -244 15 -426
191 -444 430 -24 320 275 573 583 493z m-827 -332 c62 -45 80 -151 35 -211
-45 -62 -151 -80 -211 -35 -62 45 -80 151 -35 211 45 62 151 80 211 35z m1599
-1 c43 -31 66 -85 60 -140 -16 -139 -195 -180 -275 -62 -20 29 -23 44 -20 88
5 61 29 99 79 125 44 23 115 18 156 -11z m-1279 -639 c62 -45 80 -151 35 -211
-45 -62 -151 -80 -211 -35 -62 45 -80 151 -35 211 45 62 151 80 211 35z m959
-1 c43 -31 66 -85 60 -140 -16 -139 -195 -180 -275 -62 -20 29 -23 44 -20 88
5 61 29 99 79 125 44 23 115 18 156 -11z"/>
</g>
</svg>
