<?xml version="1.0" standalone="no"?>

<?xml-stylesheet href="css/style.css" type="text/css" ?>

<!DOCTYPE svg PUBLIC "-//W3C//DTD SVG 20010904//EN"
 "http://www.w3.org/TR/2001/REC-SVG-20010904/DTD/svg10.dtd">
<svg version="1.0" xmlns="http://www.w3.org/2000/svg"
 width="626.000000pt" height="626.000000pt" viewBox="0 0 626.000000 626.000000"
 preserveAspectRatio="xMidYMid meet">
<g transform="translate(0.000000,626.000000) scale(0.100000,-0.100000)"
fill="#000000" stroke="none">
<path id="roue" d="M0 3130 l0 -3130 3130 0 3130 0 0 3130 0 3130 -3130 0 -3130 0 0
-3130z m5009 2515 c38 -19 49 -51 65 -189 8 -70 20 -123 28 -131 7 -7 38 -21
68 -30 30 -10 85 -33 122 -51 37 -19 75 -34 84 -34 9 0 57 32 106 71 49 38
103 79 120 89 30 18 32 18 67 0 47 -24 301 -281 302 -306 3 -38 -4 -50 -87
-154 -46 -58 -84 -113 -84 -123 0 -10 15 -48 33 -85 19 -37 42 -92 52 -122 11
-30 24 -61 30 -68 6 -6 66 -19 134 -27 127 -16 173 -31 191 -64 14 -27 13
-393 -1 -425 -16 -34 -45 -43 -187 -61 -68 -8 -127 -17 -132 -20 -5 -3 -16
-29 -25 -58 -9 -28 -35 -92 -58 -140 -47 -102 -52 -84 50 -216 83 -107 94
-130 80 -158 -16 -29 -244 -258 -286 -288 -32 -23 -35 -23 -65 -8 -17 9 -73
49 -125 89 -52 41 -100 74 -108 74 -7 0 -44 -15 -81 -34 -37 -18 -97 -43 -134
-55 -37 -13 -70 -27 -73 -32 -4 -5 -13 -66 -21 -136 -17 -135 -29 -168 -70
-183 -35 -14 -364 -13 -403 1 -45 16 -58 49 -75 189 -9 68 -21 129 -28 136 -7
6 -38 20 -68 29 -30 10 -85 33 -122 51 -37 19 -75 34 -85 34 -10 0 -65 -38
-123 -83 -58 -46 -112 -86 -120 -89 -8 -3 -31 3 -50 12 -41 21 -271 253 -293
297 -15 27 -14 32 4 62 11 18 51 72 89 119 39 48 70 95 70 105 0 9 -15 48 -34
85 -18 37 -41 92 -51 122 -9 30 -23 61 -30 68 -7 8 -63 20 -131 28 -145 17
-172 27 -190 70 -17 40 -20 349 -4 405 13 47 33 55 189 74 69 8 128 18 132 22
4 5 18 40 33 80 14 40 39 99 56 132 16 33 30 67 30 76 0 8 -26 48 -59 88 -84
104 -111 146 -111 175 0 19 33 59 133 160 150 153 179 175 213 162 12 -5 69
-45 126 -89 57 -45 109 -81 116 -81 7 0 43 15 81 34 37 19 99 45 137 57 38 12
70 23 71 24 2 1 10 62 18 136 17 138 29 173 68 189 12 5 104 9 205 9 141 1
189 -2 211 -14z m-2775 -1208 c41 -27 52 -64 74 -245 11 -90 24 -168 30 -174
6 -6 53 -25 104 -43 51 -17 126 -48 165 -68 40 -21 85 -37 100 -37 20 0 67 31
168 110 120 95 145 110 177 110 24 0 46 -8 65 -24 57 -48 357 -355 369 -377
32 -57 23 -75 -124 -259 -51 -63 -92 -120 -92 -126 0 -7 22 -58 50 -115 27
-57 61 -140 76 -185 31 -95 8 -84 229 -109 247 -28 245 -25 245 -368 0 -279
-6 -308 -64 -332 -17 -7 -107 -22 -199 -34 -93 -11 -172 -23 -177 -26 -4 -3
-18 -38 -30 -77 -12 -40 -46 -124 -76 -187 -30 -63 -54 -117 -54 -122 0 -4 15
-25 33 -47 178 -220 208 -264 200 -306 -7 -32 -395 -422 -430 -430 -30 -8 -67
13 -188 109 -123 97 -150 115 -173 115 -10 0 -54 -17 -98 -38 -43 -22 -122
-54 -174 -72 -52 -18 -98 -36 -103 -40 -4 -3 -16 -82 -27 -176 -12 -93 -27
-184 -35 -202 -26 -57 -53 -62 -329 -62 -350 0 -344 -4 -371 242 -24 213 -17
198 -111 230 -43 16 -121 48 -172 73 -52 25 -106 45 -121 45 -18 0 -66 -31
-161 -106 -74 -59 -145 -111 -157 -117 -42 -19 -99 24 -280 207 -178 178 -211
225 -194 268 5 13 38 59 73 104 35 45 84 108 111 142 26 33 47 65 47 70 0 5
-19 47 -41 92 -23 45 -58 128 -78 183 -42 118 -22 107 -241 132 -159 19 -191
30 -220 78 -18 30 -20 52 -20 289 0 175 4 265 12 283 19 42 64 61 178 74 162
19 244 31 251 39 4 4 19 45 34 92 15 47 47 125 71 173 24 49 44 98 44 110 0
13 -43 77 -101 152 -115 146 -134 181 -119 221 6 14 98 114 204 220 251 251
208 247 475 40 49 -38 95 -66 108 -66 13 0 56 16 96 36 39 20 119 54 177 74
122 44 109 19 135 250 10 94 22 156 34 175 29 50 59 55 341 52 229 -2 259 -4
284 -20z"/>
<path d="M4635 4934 c-98 -22 -226 -84 -305 -149 -214 -175 -312 -461 -254
-742 55 -269 290 -503 556 -557 258 -53 519 23 696 202 152 154 220 338 209
567 -8 168 -48 282 -135 395 -108 139 -209 214 -358 265 -67 23 -99 28 -209
31 -93 3 -150 -1 -200 -12z"/>
<path d="M1800 3503 c-225 -38 -398 -125 -552 -276 -188 -183 -288 -428 -288
-701 0 -344 153 -627 446 -825 94 -63 196 -105 324 -131 90 -19 125 -21 245
-16 297 11 523 120 714 341 309 357 309 916 2 1270 -204 235 -450 347 -753
344 -62 -1 -124 -4 -138 -6z"/>
</g>
</svg>
