<?xml version="1.0" standalone="no"?>
<!DOCTYPE svg PUBLIC "-//W3C//DTD SVG 20010904//EN"
 "http://www.w3.org/TR/2001/REC-SVG-20010904/DTD/svg10.dtd">
<svg version="1.0" xmlns="http://www.w3.org/2000/svg"
 width="133.000000pt" height="321.000000pt" viewBox="0 0 133.000000 321.000000"
 preserveAspectRatio="xMidYMid meet">
<metadata>
Created by potrace 1.14, written by Peter Selinger 2001-2017
</metadata>
<g transform="translate(0.000000,321.000000) scale(0.100000,-0.100000)"
fill="#ffffff" stroke="none">
<path d="M585 3167 c-17 -11 -45 -41 -63 -67 -26 -37 -32 -56 -32 -97 0 -58
30 -137 55 -147 13 -5 16 -16 13 -55 l-3 -50 21 20 c26 24 50 24 63 0 11 -20
9 -180 -3 -199 -22 -36 -78 11 -72 62 2 18 0 39 -5 47 -6 9 -9 -10 -7 -55 3
-63 1 -70 -22 -85 -24 -16 -31 -23 -53 -53 -8 -10 -33 -18 -72 -23 -157 -16
-209 -36 -203 -77 2 -18 15 -27 61 -43 67 -23 72 -44 15 -60 -20 -5 -49 -19
-64 -30 -24 -18 -26 -23 -15 -43 6 -12 24 -24 39 -28 51 -11 72 -23 66 -39 -3
-8 -14 -15 -24 -15 -24 0 -77 -28 -83 -44 -7 -17 20 -56 37 -56 11 0 26 -20
26 -35 0 -1 -14 -8 -30 -15 -73 -30 -49 -81 47 -100 32 -6 63 -13 69 -15 7 -2
9 -45 8 -126 -3 -109 -3 -260 -1 -369 0 -19 -2 -133 -5 -253 -3 -120 -2 -220
3 -223 12 -7 11 -52 -1 -56 -5 -1 -11 -29 -11 -61 -1 -35 -7 -64 -16 -72 -24
-25 -67 -129 -65 -159 2 -16 -2 -32 -8 -36 -14 -9 -20 -98 -8 -129 5 -13 11
-40 14 -60 3 -20 15 -48 25 -62 10 -15 19 -32 19 -38 0 -17 46 -61 64 -61 9 0
16 -7 16 -16 0 -19 33 -50 61 -59 11 -4 19 -10 19 -15 0 -17 134 -51 205 -52
70 -1 178 23 190 42 3 6 13 10 21 10 18 0 106 82 140 131 92 134 92 332 -2
480 -25 40 -26 47 -24 178 1 75 2 141 2 146 1 6 -2 36 -6 68 -4 31 -4 57 1 57
4 0 9 93 10 208 1 114 2 275 2 358 l1 152 28 7 c15 4 36 9 47 12 11 2 25 5 30
7 58 14 75 68 28 88 -16 7 -29 13 -31 14 -1 0 0 8 3 16 4 9 20 18 37 22 27 5
29 9 23 33 -7 30 -25 48 -73 69 -43 19 -37 36 18 49 57 14 75 48 40 75 -13 10
-41 24 -62 31 -54 18 -51 43 7 52 59 9 83 49 48 79 -33 28 -149 62 -159 47 -7
-12 -54 -12 -54 0 0 5 -8 12 -18 15 -10 3 -25 19 -35 35 -10 17 -26 33 -38 36
-19 6 -20 15 -19 143 l1 137 35 53 c28 43 35 62 36 110 2 69 -28 141 -67 162
-14 7 -25 17 -25 22 0 4 -18 8 -40 8 -22 0 -40 5 -40 11 0 18 -102 8 -135 -14z
m194 -113 c29 -48 32 -85 9 -122 -46 -75 -143 -76 -185 -2 -26 43 -28 63 -13
106 10 29 53 59 95 66 32 6 75 -16 94 -48z m-290 -1245 c18 -20 19 -34 16
-247 -2 -125 -5 -330 -5 -457 -2 -264 -7 -284 -71 -285 -39 0 -60 30 -61 86 0
61 11 630 15 782 3 97 7 115 23 127 27 21 60 18 83 -6z m181 -1068 c0 -5 13
-9 30 -9 16 1 35 -4 42 -9 7 -6 25 -13 40 -17 14 -3 51 -30 82 -60 78 -77 103
-168 77 -286 -21 -99 -132 -195 -238 -207 -66 -7 -193 14 -193 32 0 7 -11 20
-24 29 -34 22 -92 112 -106 166 -22 82 3 193 57 248 7 7 16 19 20 25 12 19 70
57 93 62 11 2 32 10 47 18 32 17 73 21 73 8z"/>
</g>
</svg>
